<svg viewBox="0 0 512 488" xmlns="http://www.w3.org/2000/svg">
    <path
        d="M255.891 488C397.094 488 511.562 384.13 511.562 256C511.562 127.87 397.094 24 255.891 24C114.687 24 0.218994 127.87 0.218994 256C0.218994 384.13 114.687 488 255.891 488Z"
        fill="#7E5C62"
    />
    <path
        d="M302.59 339.336L262.388 283.336C260.88 281.242 258.467 280 255.891 280C255.883 280 255.875 280 255.868 280C253.291 280.008 250.87 281.258 249.37 283.367L209.606 339.367C207.826 341.875 207.638 345.195 209.138 347.883L249.12 419.883C250.526 422.422 253.205 424 256.109 424C259.014 424 261.693 422.422 263.098 419.883L303.081 347.883C304.589 345.18 304.393 341.852 302.59 339.336Z"
        fill="#FFCD00"
    />
    <path
        d="M249.369 283.368L209.605 339.368C207.825 341.876 207.637 345.196 209.137 347.884L249.119 419.884C250.489 422.358 253.072 423.893 255.89 423.972V280C255.882 280 255.874 280 255.867 280C253.29 280.008 250.869 281.258 249.369 283.368Z"
        fill="#FF9100"
    />
    <path
        d="M375.843 145.112C322.037 137.653 274.39 168.516 256 214.294C237.61 168.515 189.963 137.652 136.156 145.112C86.2551 152.031 46.4611 193.113 40.9125 243.205C33.4267 310.79 86.1122 368 152.154 368C193.685 368 229.878 345.348 249.189 311.741C252.177 306.541 259.824 306.541 262.812 311.741C282.123 345.348 318.315 368 359.846 368C425.888 368 478.574 310.789 471.088 243.204C465.538 193.112 425.744 152.03 375.843 145.112Z"
        fill="#E6BE94"
    />
    <path
        d="M359.846 328C399.594 328 431.815 295.765 431.815 256C431.815 216.236 399.594 184 359.846 184C320.099 184 287.877 216.236 287.877 256C287.877 295.765 320.099 328 359.846 328Z"
        fill="#996459"
    />
    <path
        d="M151.935 328C191.683 328 223.904 295.765 223.904 256C223.904 216.236 191.683 184 151.935 184C112.188 184 79.9658 216.236 79.9658 256C79.9658 295.765 112.188 328 151.935 328Z"
        fill="#996459"
    />
    <path
        d="M399.829 64H439.812C470.674 64 495.788 38.875 495.788 8C495.788 3.578 499.364 0 503.785 0C508.205 0 511.781 3.578 511.781 8V104C511.781 143.703 479.498 176 439.812 176H343.853C299.763 176 263.887 211.891 263.887 256C263.887 260.422 260.311 264 255.891 264C251.47 264 247.894 260.422 247.894 256V216C247.894 132.188 316.052 64 399.829 64Z"
        fill="#996459"
    />
    <path
        d="M112.171 64H72.1882C41.3264 64 16.2122 38.875 16.2122 8C16.2122 3.578 12.6357 0 8.21557 0C3.79546 0 0.218994 3.578 0.218994 8V104C0.218994 143.703 32.5022 176 72.1882 176H168.147C212.237 176 248.113 211.891 248.113 256C248.113 260.422 251.689 264 256.11 264C260.53 264 264.106 260.422 264.106 256V216C264.106 132.188 195.947 64 112.171 64Z"
        fill="#996459"
    />
    <path
        d="M152.154 304C178.652 304 200.133 282.51 200.133 256C200.133 229.49 178.652 208 152.154 208C125.656 208 104.174 229.49 104.174 256C104.174 282.51 125.656 304 152.154 304Z"
        fill="#FFCD00"
    />
    <path
        d="M152.154 280C165.403 280 176.144 269.255 176.144 256C176.144 242.745 165.403 232 152.154 232C138.905 232 128.164 242.745 128.164 256C128.164 269.255 138.905 280 152.154 280Z"
        fill="#5C546A"
    />
    <path
        d="M168.038 256.11C176.871 256.11 184.031 248.947 184.031 240.11C184.031 231.273 176.871 224.11 168.038 224.11C159.205 224.11 152.045 231.273 152.045 240.11C152.045 248.947 159.205 256.11 168.038 256.11Z"
        fill="white"
    />
    <path
        d="M359.846 304C386.344 304 407.826 282.51 407.826 256C407.826 229.49 386.344 208 359.846 208C333.348 208 311.867 229.49 311.867 256C311.867 282.51 333.348 304 359.846 304Z"
        fill="#FFCD00"
    />
    <path
        d="M359.846 280C373.095 280 383.836 269.255 383.836 256C383.836 242.745 373.095 232 359.846 232C346.597 232 335.856 242.745 335.856 256C335.856 269.255 346.597 280 359.846 280Z"
        fill="#5C546A"
    />
    <path
        d="M375.729 256.11C384.562 256.11 391.722 248.947 391.722 240.11C391.722 231.273 384.562 224.11 375.729 224.11C366.896 224.11 359.736 231.273 359.736 240.11C359.736 248.947 366.896 256.11 375.729 256.11Z"
        fill="white"
    />
    <path
        d="M504.003 0C499.583 0 496.007 3.578 496.007 8C496.007 38.875 470.893 64 440.031 64H400.048C333.049 64 276.147 107.663 256 167.999C235.853 107.663 178.951 64 111.952 64H71.9692C41.1074 64 15.9932 38.875 15.9932 8C15.9932 3.578 12.4167 0 7.99658 0C3.57647 0 0 3.578 0 8V56C0 86.928 25.0613 112 55.9761 112H111.952C166.232 112 213.768 140.707 240.572 183.684C243.859 188.954 249.77 192 255.979 192H256.022C262.23 192 268.141 188.954 271.428 183.684C298.232 140.707 345.768 112 400.048 112H456.024C486.939 112 512 86.928 512 56V8C512 3.578 508.423 0 504.003 0Z"
        fill="#E6BE94"
    />
</svg>
