<svg viewBox="0 0 511 479" xmlns="http://www.w3.org/2000/svg">
    <path
        d="M151.5 311C182.103 311 207 286.103 207 255.5C207 224.897 182.103 200 151.5 200C120.897 200 96 224.897 96 255.5C96 286.103 120.897 311 151.5 311ZM151.5 215C173.832 215 192 233.168 192 255.5C192 277.832 173.832 296 151.5 296C129.168 296 111 277.832 111 255.5C111 233.168 129.168 215 151.5 215Z"
    />
    <path
        d="M304 255.5C304 286.103 328.897 311 359.5 311C390.103 311 415 286.103 415 255.5C415 224.897 390.103 200 359.5 200C328.897 200 304 224.897 304 255.5ZM359.5 215C381.832 215 400 233.168 400 255.5C400 277.832 381.832 296 359.5 296C337.168 296 319 277.832 319 255.5C319 233.168 337.168 215 359.5 215Z"
    />
    <path
        d="M103.5 135H135.5C139.642 135 143 131.642 143 127.5C143 123.358 139.642 120 135.5 120H103.5C99.358 120 96 123.358 96 127.5C96 131.642 99.358 135 103.5 135Z"
    />
    <path
        d="M407.5 120H375.5C371.358 120 368 123.358 368 127.5C368 131.642 371.358 135 375.5 135H407.5C411.642 135 415 131.642 415 127.5C415 123.358 411.642 120 407.5 120Z"
    />
    <path
        d="M503.5 0C499.358 0 496 3.358 496 7.5C496 38.654 470.654 64 439.5 64H399.5C395.642 64 391.817 64.147 388.031 64.432C348.124 43.212 302.358 32 255.5 32C208.642 32 162.876 43.212 122.969 64.432C119.183 64.147 115.358 64 111.5 64H71.5C40.346 64 15 38.654 15 7.5C15 3.358 11.642 0 7.5 0C3.358 0 0 3.358 0 7.5V103.5C0 125.417 9.921 145.053 25.499 158.179C8.799 188.368 0 221.874 0 255.5C0 315.397 26.71 371.648 75.211 413.891C123.418 455.877 187.446 479 255.5 479C323.554 479 387.582 455.877 435.789 413.891C484.29 371.648 511 315.397 511 255.5C511 221.874 502.201 188.368 485.501 158.179C501.079 145.053 511 125.417 511 103.5V7.5C511 3.358 507.642 0 503.5 0ZM255.5 47C292.7 47 329.146 54.443 362.186 68.655C311.876 81.445 271.542 119.476 255.5 168.416C239.458 119.476 199.124 81.445 148.814 68.655C181.854 54.443 218.3 47 255.5 47ZM412.719 175C439.857 192.959 456 222.888 456 255.5C456 308.71 412.71 352 359.5 352C306.29 352 263 308.71 263 255.5C263 211.112 299.112 175 343.5 175H412.719ZM98.281 175H167.5C211.888 175 248 211.112 248 255.5C248 308.71 204.71 352 151.5 352C98.29 352 55 308.71 55 255.5C55 222.888 71.143 192.959 98.281 175ZM255.5 295.697C262.41 313.515 273.772 329.129 288.216 341.168L255.5 400.057L222.784 341.169C237.228 329.129 248.59 313.515 255.5 295.697ZM15.152 107.434C28.249 124.194 48.63 135 71.5 135C75.642 135 79 131.642 79 127.5C79 123.358 75.642 120 71.5 120C40.346 120 15 94.654 15 63.5V51.271C28.092 68.131 48.551 79 71.5 79H111.5C115.318 79 119.097 79.167 122.836 79.476C123.462 79.612 124.106 79.667 124.753 79.639C181.579 85.139 228.315 125.631 243.103 179.239C226.537 153.145 200.668 133.176 169.454 124.573C165.462 123.475 161.332 125.818 160.231 129.811C159.13 133.804 161.475 137.934 165.469 139.034C189.673 145.705 210.237 160.122 224.786 179.147C208.815 167.134 188.978 160 167.5 160H71.5C41.67 160 17.181 136.758 15.152 107.434ZM496 255.5C496 370.467 388.112 464 255.5 464C122.888 464 15 370.467 15 255.5C15 224.389 22.735 194.532 37.978 166.63C47.983 171.964 59.392 175 71.5 175H74.32C52.535 195.811 40 224.612 40 255.5C40 316.981 90.019 367 151.5 367C173.173 367 193.417 360.778 210.552 350.036L248.944 419.142C250.267 421.523 252.777 423 255.5 423C258.223 423 260.733 421.523 262.056 419.142L300.448 350.036C317.583 360.778 337.827 367 359.5 367C420.981 367 471 316.981 471 255.5C471 224.612 458.465 195.811 436.68 175H439.5C451.608 175 463.017 171.964 473.022 166.63C488.265 194.532 496 224.389 496 255.5ZM439.5 160H343.5C322.022 160 302.185 167.134 286.215 179.146C300.764 160.121 321.328 145.704 345.532 139.033C349.526 137.932 351.87 133.803 350.77 129.81C349.67 125.817 345.539 123.474 341.547 124.572C310.333 133.176 284.464 153.144 267.898 179.238C282.688 125.623 329.434 85.126 386.272 79.636C386.37 79.64 386.468 79.654 386.566 79.654C387.079 79.654 387.585 79.586 388.084 79.482C391.849 79.169 395.655 79 399.5 79H439.5C462.449 79 482.908 68.131 496 51.271V63.5C496 94.654 470.654 120 439.5 120C435.358 120 432 123.358 432 127.5C432 131.642 435.358 135 439.5 135C462.37 135 482.751 124.194 495.848 107.434C493.819 136.758 469.33 160 439.5 160Z"
    />
    <path
        d="M151.5 279C164.458 279 175 268.458 175 255.5C175 251.358 171.642 248 167.5 248C163.358 248 160 251.358 160 255.5C160 260.187 156.187 264 151.5 264C146.813 264 143 260.187 143 255.5C143 250.813 146.813 247 151.5 247C155.642 247 159 243.642 159 239.5C159 235.358 155.642 232 151.5 232C138.542 232 128 242.542 128 255.5C128 268.458 138.542 279 151.5 279Z"
    />
    <path
        d="M359.5 279C372.458 279 383 268.458 383 255.5C383 251.358 379.642 248 375.5 248C371.358 248 368 251.358 368 255.5C368 260.187 364.187 264 359.5 264C354.813 264 351 260.187 351 255.5C351 250.813 354.813 247 359.5 247C363.642 247 367 243.642 367 239.5C367 235.358 363.642 232 359.5 232C346.542 232 336 242.542 336 255.5C336 268.458 346.542 279 359.5 279Z"
    />
</svg>
