<?xml version="1.0" encoding="iso-8859-1"?>
<!-- Generator: Adobe Illustrator 19.0.0, SVG Export Plug-In . SVG Version: 6.00 Build 0)  -->
<svg version="1.1" id="Capa_1" xmlns="http://www.w3.org/2000/svg" xmlns:xlink="http://www.w3.org/1999/xlink" x="0px" y="0px"
	 viewBox="0 0 511 511" style="enable-background:new 0 0 511 511;" xml:space="preserve">
<g>
	<path d="M151.5,327c30.603,0,55.5-24.897,55.5-55.5S182.103,216,151.5,216S96,240.897,96,271.5S120.897,327,151.5,327z M151.5,231
		c22.332,0,40.5,18.168,40.5,40.5S173.832,312,151.5,312S111,293.832,111,271.5S129.168,231,151.5,231z"/>
	<path d="M304,271.5c0,30.603,24.897,55.5,55.5,55.5s55.5-24.897,55.5-55.5S390.103,216,359.5,216S304,240.897,304,271.5z
		 M359.5,231c22.332,0,40.5,18.168,40.5,40.5S381.832,312,359.5,312S319,293.832,319,271.5S337.168,231,359.5,231z"/>
	<path d="M103.5,151h32c4.142,0,7.5-3.358,7.5-7.5s-3.358-7.5-7.5-7.5h-32c-4.142,0-7.5,3.358-7.5,7.5S99.358,151,103.5,151z"/>
	<path d="M407.5,136h-32c-4.142,0-7.5,3.358-7.5,7.5s3.358,7.5,7.5,7.5h32c4.142,0,7.5-3.358,7.5-7.5S411.642,136,407.5,136z"/>
	<path d="M503.5,16c-4.142,0-7.5,3.358-7.5,7.5c0,31.154-25.346,56.5-56.5,56.5h-40c-3.858,0-7.683,0.147-11.469,0.432
		C348.124,59.212,302.358,48,255.5,48s-92.624,11.212-132.531,32.432C119.183,80.147,115.358,80,111.5,80h-40
		C40.346,80,15,54.654,15,23.5c0-4.142-3.358-7.5-7.5-7.5S0,19.358,0,23.5v96c0,21.917,9.921,41.553,25.499,54.679
		C8.799,204.368,0,237.874,0,271.5c0,59.897,26.71,116.148,75.211,158.391C123.418,471.877,187.446,495,255.5,495
		s132.082-23.123,180.289-65.109C484.29,387.648,511,331.397,511,271.5c0-33.626-8.799-67.132-25.499-97.321
		C501.079,161.053,511,141.417,511,119.5v-96C511,19.358,507.642,16,503.5,16z M255.5,63c37.2,0,73.646,7.443,106.686,21.655
		c-50.31,12.79-90.644,50.821-106.686,99.761c-16.042-48.94-56.376-86.971-106.686-99.761C181.854,70.443,218.3,63,255.5,63z
		 M412.719,191C439.857,208.959,456,238.888,456,271.5c0,53.21-43.29,96.5-96.5,96.5S263,324.71,263,271.5
		c0-44.388,36.112-80.5,80.5-80.5H412.719z M98.281,191H167.5c44.388,0,80.5,36.112,80.5,80.5c0,53.21-43.29,96.5-96.5,96.5
		S55,324.71,55,271.5C55,238.888,71.143,208.959,98.281,191z M255.5,311.697c6.91,17.818,18.272,33.432,32.716,45.471L255.5,416.057
		l-32.716-58.888C237.228,345.129,248.59,329.515,255.5,311.697z M15.152,123.434C28.249,140.194,48.63,151,71.5,151
		c4.142,0,7.5-3.358,7.5-7.5s-3.358-7.5-7.5-7.5C40.346,136,15,110.654,15,79.5V67.271C28.092,84.131,48.551,95,71.5,95h40
		c3.818,0,7.597,0.167,11.336,0.476c0.626,0.136,1.27,0.191,1.917,0.163c56.826,5.5,103.562,45.992,118.35,99.6
		c-16.566-26.094-42.435-46.063-73.649-54.666c-3.992-1.098-8.122,1.245-9.223,5.238c-1.101,3.993,1.244,8.123,5.238,9.223
		c24.204,6.671,44.768,21.088,59.317,40.113C208.815,183.134,188.978,176,167.5,176h-96C41.67,176,17.181,152.758,15.152,123.434z
		 M496,271.5C496,386.467,388.112,480,255.5,480S15,386.467,15,271.5c0-31.111,7.735-60.968,22.978-88.87
		C47.983,187.964,59.392,191,71.5,191h2.82C52.535,211.811,40,240.612,40,271.5C40,332.981,90.019,383,151.5,383
		c21.673,0,41.917-6.222,59.052-16.964l38.392,69.106c1.323,2.381,3.833,3.858,6.556,3.858s5.233-1.477,6.556-3.858l38.392-69.106
		C317.583,376.778,337.827,383,359.5,383c61.481,0,111.5-50.019,111.5-111.5c0-30.888-12.535-59.689-34.32-80.5h2.82
		c12.108,0,23.517-3.036,33.522-8.37C488.265,210.532,496,240.389,496,271.5z M439.5,176h-96c-21.478,0-41.315,7.134-57.285,19.146
		c14.549-19.025,35.113-33.442,59.317-40.113c3.994-1.101,6.338-5.23,5.238-9.223s-5.231-6.336-9.223-5.238
		c-31.214,8.604-57.083,28.572-73.649,54.666c14.79-53.615,61.536-94.112,118.374-99.602c0.098,0.004,0.196,0.018,0.294,0.018
		c0.513,0,1.019-0.068,1.518-0.172C391.849,95.169,395.655,95,399.5,95h40c22.949,0,43.408-10.869,56.5-27.729V79.5
		c0,31.154-25.346,56.5-56.5,56.5c-4.142,0-7.5,3.358-7.5,7.5s3.358,7.5,7.5,7.5c22.87,0,43.251-10.806,56.348-27.566
		C493.819,152.758,469.33,176,439.5,176z"/>
	<path d="M151.5,295c12.958,0,23.5-10.542,23.5-23.5c0-4.142-3.358-7.5-7.5-7.5s-7.5,3.358-7.5,7.5c0,4.687-3.813,8.5-8.5,8.5
		s-8.5-3.813-8.5-8.5s3.813-8.5,8.5-8.5c4.142,0,7.5-3.358,7.5-7.5s-3.358-7.5-7.5-7.5c-12.958,0-23.5,10.542-23.5,23.5
		S138.542,295,151.5,295z"/>
	<path d="M359.5,295c12.958,0,23.5-10.542,23.5-23.5c0-4.142-3.358-7.5-7.5-7.5s-7.5,3.358-7.5,7.5c0,4.687-3.813,8.5-8.5,8.5
		s-8.5-3.813-8.5-8.5s3.813-8.5,8.5-8.5c4.142,0,7.5-3.358,7.5-7.5s-3.358-7.5-7.5-7.5c-12.958,0-23.5,10.542-23.5,23.5
		S346.542,295,359.5,295z"/>
</g>
<g>
</g>
<g>
</g>
<g>
</g>
<g>
</g>
<g>
</g>
<g>
</g>
<g>
</g>
<g>
</g>
<g>
</g>
<g>
</g>
<g>
</g>
<g>
</g>
<g>
</g>
<g>
</g>
<g>
</g>
</svg>
