<svg version="1" xmlns="http://www.w3.org/2000/svg" width="933.333" height="933.333" viewBox="0 0 700.000000 700.000000"><path d="M337.5 49.7c-55.1 1.9-108.4 15.2-155.9 39-13 6.5-26.9 14.4-26.3 14.9.2.2 6.2.9 13.3 1.4 65 5.3 123.2 39.9 158.3 94 6.7 10.3 16.5 29.7 20.1 39.7 1.3 3.5 2.6 6.3 3 6.3.4 0 1.7-2.8 3-6.3 3.6-10 13.4-29.4 20.1-39.7 15-23.1 35.2-43.7 57.9-58.9 30.6-20.5 64.4-32.3 100.5-35 7-.6 12.9-1.2 13.1-1.4.2-.2-4.4-3.1-10.4-6.5-39.9-22.8-87.1-38.3-135.7-44.6-10.5-1.4-49.3-3.9-52-3.4-.5.1-4.6.3-9 .5z"/><path d="M.1 129.5c0 15.4.4 32.5.9 37.9 2.2 22.9 11 42.3 26.3 58.3l6 6.3-5.1 10.7c-20.5 43.2-30 92-27.2 139.2 1.1 18.5 2.3 27.7 5.6 43.5 15.5 73.7 58.2 138.8 122.2 186.4 50.8 37.8 110.4 60.9 179.2 69.4 16.2 2 72 1.7 88.5-.5 89.3-12 164.9-50 221.8-111.6 41.8-45.1 68.3-99.6 77.8-160.1 2-12.5 2.4-18.3 2.4-42 0-17.6-.5-30.7-1.3-36.5-4.9-33.8-12.6-59.9-26.4-89.8l-4.1-8.7 6-6.3c15.3-16 24.1-35.4 26.3-58.3.5-5.4.9-22.5.9-37.9v-28l-2.4 9.2c-2.8 10.7-4.9 15.9-9.9 23.8-9.5 14.7-24 25.6-42.1 31.6-6.8 2.2-8.3 2.3-61 3-54.5.7-62 1.1-80.9 5.1-48.9 10-96.3 41.3-125.1 82.4-9.8 14-11.8 16.3-16.8 19-10.7 5.8-24.4 2.6-31.9-7.4-1.9-2.6-5.6-7.8-8.3-11.6-28.8-41.1-76.2-72.4-125.1-82.4-18.9-4-26.4-4.4-80.9-5.1-52.7-.7-54.2-.8-61-3-18.1-6-32.6-16.9-42.1-31.6-5-7.9-7.1-13.1-9.9-23.8l-2.4-9.2v28zM240.9 258c42.5 4.4 78.4 33.1 92.2 73.7 3.2 9.2 5.9 24.4 5.9 32.6 0 8.2 4.1 13 11 13s11-4.8 11-13 2.7-23.4 5.9-32.6c13.8-40.6 49.7-69.3 92.2-73.7 5.9-.6 37.2-1 74.8-1h64.7l4.6 4.7c12.7 13.1 26.3 35.4 32.7 53.7 21.1 60.1 2.9 126.9-45.5 167.6-19.7 16.6-42.1 27.4-68.8 33.2-15 3.3-44.6 3.3-60 0-14.1-3.1-25.5-7.1-39-13.8-8.4-4.2-11.1-5.2-11.7-4.2-.5.7-12.5 22.2-26.6 47.7-14.2 25.5-26.7 46.9-27.8 47.6-1.1.7-3 1.6-4.2 2l-2.3.6V438h-2.3c-2.9 0-5.8 3.2-13.2 14.5-7.2 11-27.7 31.8-38.6 39.2-16.4 11.2-37.6 20.2-57.5 24.5-15.4 3.3-45 3.3-60 0-36.4-7.9-67.1-26.4-89.1-53.7-33.2-41.3-42.8-97.1-25.2-147.1 6.4-18.3 20-40.6 32.7-53.7l4.6-4.7h64.7c37.6 0 68.9.4 74.8 1z"/><path d="M188 269.9c-29.8 6.5-54.8 25.7-68 52.1-5.3 10.7-7.9 18.9-9.7 30.9-1.3 8.9-1.4 12.5-.5 22.3 2.5 25.2 12.1 44.9 30.5 62.4 13.2 12.6 28.5 20.9 46.3 25.1 12.3 2.8 32.9 2.4 45.8-1 22.1-5.9 40.6-18.3 53.9-36.2 14.3-19.2 20.4-38.9 19.4-62.9-.6-15.1-2.8-24.8-8.7-37.3-13-27.9-34.7-45.8-65.5-54.5-10.5-2.9-32.3-3.4-43.5-.9zm38 33.6c28.7 8.8 47 33.3 47 62.9 0 18.8-5.6 32.2-19 45.7-7 7.1-10 9.4-17 12.7-19.5 9.3-38.5 9.3-58 0-7-3.3-10-5.6-17-12.7-13.4-13.5-19-27-19-45.6 0-10.9 2-19.7 6.5-29 8.4-17.3 25.5-30.7 44.7-35 7.9-1.8 24.2-1.3 31.8 1z"/><path d="M202.7 334c-10.5 1.8-19.9 9.1-24.6 19-3.5 7.5-3.6 19.1-.3 26.5 2.9 6.3 9.2 12.9 15.7 16.3 4.4 2.4 6.1 2.7 14.5 2.7 8.3 0 10.1-.3 14.5-2.7 10.3-5.4 17.1-15.2 18.2-26.3.6-6 .7-6-3.4-4.4-7.9 3-18.2.2-24-6.5-5.2-5.9-5.9-9.8-4.1-23 .4-2.3-.5-2.6-6.5-1.6zM474.5 269.4c-33.9 6.6-62.4 30.2-74.5 61.7-6.9 18.2-8.3 42.3-3.3 60.4 13.5 49.2 62.1 80.7 111.3 72 62.8-11.1 98.7-75.6 74.9-134.7-6-15.1-20-32.8-33.5-42.4-8.1-5.8-22.9-12.7-32.9-15.4-10.3-2.8-31.8-3.6-42-1.6zm30.9 33.1c19.3 4.1 36.6 17.5 45.1 35 4.5 9.3 6.5 18.1 6.5 29 0 18.6-5.6 32.1-19 45.6-7 7.1-10 9.4-17 12.7-19.5 9.3-38.5 9.3-58 0-7-3.3-10-5.6-17-12.7-9.6-9.7-14.8-18.6-17.6-30.6-2.2-9.4-1.5-26.4 1.5-35.5 10-31.2 43.2-50.3 75.5-43.5z"/><path d="M486.9 334c-10.9 1.8-20 8.8-24.7 18.8-3.8 8.1-3.8 19.3-.1 27.2 3.2 6.6 8.6 12.3 15.4 15.8 4.4 2.4 6.2 2.7 14.5 2.7 8.4 0 10.1-.3 14.5-2.7 10.2-5.4 16.8-14.9 18.1-26.1.7-6.2.8-6.2-3.3-4.6-7.9 3-18.2.2-24-6.5-5.2-5.9-5.9-9.8-4.1-23 .4-2.3-.5-2.6-6.3-1.6z"/></svg>